<svg width="112" height="56" viewBox="0 0 112 56" fill="none" xmlns="http://www.w3.org/2000/svg">
<g clip-path="url(#clip0_88_6196)">
<path d="M78.9938 40.8171H78.9791C78.5973 40.8171 78.2494 41.0143 78.0482 41.3445C75.7713 45.0816 72.557 48.2105 68.7527 50.3931C64.8308 52.6429 60.3557 53.8321 55.8115 53.8321C51.2672 53.8321 46.7925 52.6429 42.8702 50.3931C39.0655 48.2105 35.8512 45.0816 33.5747 41.3441C33.3735 41.0139 33.0252 40.8168 32.6291 40.8168C32.233 40.8168 31.8796 41.0223 31.6843 41.3664C31.4905 41.708 31.4964 42.1114 31.6997 42.446C34.1664 46.5016 37.6507 49.8975 41.7761 52.2665C46.0294 54.7091 50.8829 56 55.8118 56C60.7407 56 65.5943 54.7091 69.8476 52.2665C73.9729 49.8975 77.4572 46.5016 79.9235 42.446C80.1269 42.1117 80.1328 41.7084 79.939 41.3664C79.7437 41.0223 79.3906 40.8168 78.9941 40.8168L78.9938 40.8171Z" fill="#FF3E3E"/>
<path d="M32.5556 15.3014H32.574C32.9517 15.3014 33.3092 15.0977 33.507 14.7693C35.7762 11.0007 38.9942 7.84395 42.8132 5.63986C46.7495 3.36812 51.2445 2.16715 55.8119 2.16715C60.3793 2.16715 64.8738 3.36812 68.8105 5.63986C72.6295 7.84395 75.8475 11.0007 78.1167 14.7693C78.3142 15.0973 78.6717 15.3014 79.0681 15.3014C79.4646 15.3014 79.8154 15.0969 80.0107 14.7546C80.2049 14.4145 80.2005 14.0119 79.9997 13.6776C77.5415 9.58798 74.0528 6.16208 69.9113 3.76966C65.6418 1.30336 60.7662 0 55.8119 0C50.8576 0 45.982 1.30336 41.7128 3.76966C37.5713 6.16208 34.0826 9.58798 31.6244 13.6776C31.4236 14.0119 31.4192 14.4145 31.6134 14.7546C31.8087 15.0969 32.161 15.3014 32.556 15.3014H32.5556Z" fill="#FF3E3E"/>
<path d="M5.91051 33.0726L2.21143 22.5374L2.25152 24.5565V32.9325C2.25152 33.6124 1.80909 34.0519 1.12576 34.0519C0.442433 34.0519 0 33.612 0 32.9325V21.5778C0 20.4383 0.744009 19.6989 1.86977 19.6989C2.71418 19.6989 3.41773 20.1988 3.69908 20.9781L7.33785 31.2134L10.9365 20.9781C11.2179 20.1984 11.9218 19.6989 12.7658 19.6989C13.8916 19.6989 14.6356 20.4387 14.6356 21.5778V32.9325C14.6356 33.6124 14.1932 34.0519 13.5098 34.0519C12.8265 34.0519 12.3841 33.612 12.3841 32.9325V24.5565L12.4242 22.5374L8.74532 33.0726C8.52429 33.7122 8.02154 34.0721 7.33822 34.0721C6.65489 34.0721 6.15214 33.7122 5.91088 33.0726H5.91051Z" fill="#1A1110"/>
<path d="M18.7163 33.3126L17.8921 34.2122C17.6306 34.4919 17.1885 34.5121 16.9068 34.2722C16.6255 34.0121 16.585 33.5525 16.8465 33.2727L17.6909 32.3332C16.9671 31.4135 16.5449 30.1741 16.5449 28.7548C16.5449 25.4763 18.7766 23.4174 21.7721 23.4174C22.9784 23.4174 24.0641 23.7571 24.9284 24.3569L25.8934 23.2974C26.1549 23.0177 26.5969 22.9976 26.8783 23.2375C27.1596 23.4975 27.2001 23.9572 26.9386 24.2369L25.9335 25.3362C26.6172 26.2358 26.9989 27.3754 26.9989 28.7548C26.9989 32.0132 24.7673 34.2524 21.7717 34.2524C20.6055 34.2524 19.5603 33.9127 18.7159 33.3129L18.7163 33.3126ZM19.1786 30.6938L23.5613 25.876C23.0788 25.4763 22.4757 25.2561 21.7721 25.2561C20.023 25.2561 18.8167 26.6154 18.8167 28.7746C18.8167 29.5144 18.9373 30.154 19.1786 30.6938ZM21.7721 32.4129C23.5212 32.4129 24.7272 31.0137 24.7272 28.7746C24.7272 28.1148 24.6066 27.5352 24.4057 27.0353L20.0432 31.8329C20.5055 32.2129 21.1086 32.4126 21.7721 32.4126V32.4129Z" fill="#1A1110"/>
<path d="M30.0356 19.3588C30.6991 19.3588 31.1411 19.7987 31.1411 20.4584V24.7565C31.8649 23.997 32.9708 23.4572 34.418 23.4572C37.2929 23.4572 39.1627 25.5761 39.1627 28.8348C39.1627 32.0936 37.2929 34.2125 34.4382 34.2125C32.8903 34.2125 31.6236 33.5926 30.9804 32.5932V32.9731C30.9804 33.593 30.5784 33.9927 29.955 33.9927C29.3317 33.9927 28.9297 33.593 28.9297 32.9731V20.4588C28.9297 19.7991 29.3721 19.3591 30.0352 19.3591L30.0356 19.3588ZM33.9759 32.373C35.7652 32.373 36.8909 31.0737 36.8909 28.8345C36.8909 26.5953 35.7652 25.2561 33.9759 25.2561C32.1867 25.2561 31.0407 26.5554 31.0407 28.7745C31.0407 30.9936 32.2066 32.3726 33.9759 32.3726V32.373Z" fill="#1A1110"/>
<path d="M49.3557 29.5143H42.8421C43.0432 31.2935 44.2091 32.3932 45.6769 32.3932C47.0641 32.3932 47.607 31.9335 48.3506 31.1337C48.5919 30.8737 48.793 30.734 49.1347 30.734C49.9589 30.734 50.4013 31.6537 49.9589 32.2732C49.0942 33.4727 47.486 34.2524 45.6967 34.2524C42.7012 34.2524 40.5703 32.0534 40.5703 28.7548C40.5703 25.6361 42.6409 23.4174 45.536 23.4174C48.5919 23.4174 50.4818 25.7564 50.4818 28.3949C50.4818 29.0748 50.0394 29.5143 49.3561 29.5143H49.3557ZM48.2502 27.835C48.0895 26.0958 46.9836 25.2364 45.536 25.2364C44.0884 25.2364 43.0432 26.2358 42.8421 27.835H48.2502Z" fill="#1A1110"/>
<path d="M53.3965 19.3588C54.06 19.3588 54.5021 19.7987 54.5021 20.4584V32.8927C54.5021 33.5524 54.0596 33.9923 53.3965 33.9923C52.7335 33.9923 52.291 33.5524 52.291 32.8927V20.4584C52.291 19.7987 52.7335 19.3588 53.3965 19.3588Z" fill="#1A1110"/>
<path d="M61.981 25.7359H60.9957C59.3672 25.7359 58.8243 27.0352 58.8243 29.1344V32.8927C58.8243 33.5524 58.3819 33.9924 57.7188 33.9924C57.0557 33.9924 56.6133 33.5524 56.6133 32.8927V24.7163C56.6133 24.1166 57.0557 23.6766 57.6589 23.6766C58.262 23.6766 58.7041 24.1166 58.7041 24.7163V25.496C59.1664 24.4366 60.0512 23.6967 61.3377 23.6967H61.981C62.6043 23.6967 63.0063 24.0965 63.0063 24.7163C63.0063 25.3362 62.6043 25.7359 61.981 25.7359Z" fill="#1A1110"/>
<path d="M65.4193 19.3588C66.1633 19.3588 66.7058 19.8784 66.7058 20.6182C66.7058 21.3581 66.1629 21.9176 65.4193 21.9176C64.6756 21.9176 64.1328 21.3778 64.1328 20.6182C64.1328 19.8587 64.6756 19.3588 65.4193 19.3588ZM65.4193 23.677C66.0828 23.677 66.5248 24.1169 66.5248 24.7766V32.893C66.5248 33.5528 66.0824 33.9927 65.4193 33.9927C64.7562 33.9927 64.3138 33.5528 64.3138 32.893V24.7766C64.3138 24.1169 64.7562 23.677 65.4193 23.677Z" fill="#1A1110"/>
<path d="M75.4294 32.8926V27.975C75.4294 26.216 74.7457 25.3164 73.2985 25.3164C71.67 25.3164 70.8458 26.6556 70.8458 28.475V32.893C70.8458 33.5527 70.4034 33.9927 69.7403 33.9927C69.0772 33.9927 68.6348 33.5527 68.6348 32.893V24.7166C68.6348 24.1169 69.0772 23.6769 69.6804 23.6769C70.2835 23.6769 70.7256 24.1169 70.7256 24.7166V25.2363C71.389 24.1769 72.4342 23.4572 73.9624 23.4572C76.2543 23.4572 77.6412 24.8165 77.6412 27.5951V32.8926C77.6412 33.5524 77.1988 33.9923 76.5357 33.9923C75.8726 33.9923 75.4298 33.5524 75.4298 32.8926H75.4294Z" fill="#1A1110"/>
<path d="M80.0948 36.5709C79.6123 36.011 79.7329 35.3915 80.1151 35.0715C80.5373 34.7116 81.1 34.7515 81.5023 35.1315C82.5277 36.1112 83.1911 36.3909 84.3371 36.3909C86.3275 36.3909 87.5136 35.4712 87.5136 33.5121V32.5924C86.6692 33.5919 85.5232 34.0318 84.1764 34.0515C81.4824 34.0914 79.3516 32.0526 79.3516 28.7339C79.3516 25.5954 81.563 23.4564 84.1764 23.4564C85.664 23.4564 86.8303 24.156 87.5739 25.1756V24.7159C87.5739 24.1161 88.0163 23.6762 88.6195 23.6762C89.2226 23.6762 89.6647 24.1161 89.6647 24.7159V33.6518C89.6647 36.6703 87.3727 38.2297 84.3371 38.2297C82.0856 38.2297 80.7988 37.4102 80.0952 36.5705L80.0948 36.5709ZM84.578 32.3327C86.3672 32.3327 87.5132 30.9135 87.5132 28.7544C87.5132 26.5952 86.3672 25.256 84.578 25.256C82.7888 25.256 81.6226 26.5952 81.6226 28.7544C81.6226 30.9135 82.8289 32.3327 84.578 32.3327Z" fill="#1A1110"/>
<path d="M100.158 29.5143H93.6448C93.846 31.2935 95.0118 32.3932 96.4796 32.3932C97.8669 32.3932 98.4097 31.9335 99.1533 31.1337C99.3946 30.8737 99.5958 30.734 99.9374 30.734C100.762 30.734 101.204 31.6537 100.762 32.2732C99.897 33.4727 98.2887 34.2524 96.4995 34.2524C93.5039 34.2524 91.373 32.0534 91.373 28.7548C91.373 25.6361 93.4436 23.4174 96.3387 23.4174C99.3946 23.4174 101.285 25.7564 101.285 28.3949C101.285 29.0748 100.842 29.5143 100.159 29.5143H100.158ZM99.0529 27.835C98.8922 26.0958 97.7863 25.2364 96.3387 25.2364C94.8912 25.2364 93.846 26.2358 93.6448 27.835H99.0529Z" fill="#1A1110"/>
<path d="M109.789 32.8926V27.975C109.789 26.216 109.105 25.3164 107.658 25.3164C106.029 25.3164 105.205 26.6556 105.205 28.475V32.893C105.205 33.5527 104.763 33.9927 104.1 33.9927C103.437 33.9927 102.994 33.5527 102.994 32.893V24.7166C102.994 24.1169 103.437 23.6769 104.04 23.6769C104.643 23.6769 105.085 24.1169 105.085 24.7166V25.2363C105.748 24.1769 106.794 23.4572 108.322 23.4572C110.614 23.4572 112.001 24.8165 112.001 27.5951V32.8926C112.001 33.5524 111.558 33.9923 110.895 33.9923C110.232 33.9923 109.789 33.5524 109.789 32.8926H109.789Z" fill="#1A1110"/>
</g>
<defs>
<clipPath id="clip0_88_6196">
<rect width="112" height="56" fill="white"/>
</clipPath>
</defs>
</svg>
