<svg width="48" height="48" viewBox="0 0 48 48" fill="none" xmlns="http://www.w3.org/2000/svg">
    <g clip-path="url(#clip0_778_5628)">
        <path d="M45.9918 29.3486C45.5138 29.3486 45.0861 29.669 44.9517 30.1278C43.6524 34.5632 40.8978 38.5583 37.1957 41.377C33.3704 44.2894 28.8072 45.8289 23.999 45.8289C19.1908 45.8289 14.6276 44.2894 10.8024 41.377C7.10024 38.5583 4.34566 34.5632 3.04636 30.1278C2.91192 29.669 2.48421 29.3486 2.00647 29.3486C1.66163 29.3486 1.34502 29.5071 1.13796 29.7832C0.930392 30.0603 0.867274 30.4103 0.964773 30.7428C2.39415 35.618 5.4225 40.009 9.49178 43.1066C13.697 46.3076 18.7136 47.9997 23.9988 47.9997C29.2839 47.9997 34.3008 46.3076 38.5058 43.1066C42.575 40.009 45.6034 35.6182 47.0328 30.7428C47.1305 30.41 47.0674 30.0603 46.8598 29.7829C46.6528 29.5069 46.3364 29.3483 45.9916 29.3483L45.9918 29.3486Z" fill="#FF3E3E"/>
        <path d="M2.00621 18.6514C2.48421 18.6514 2.91192 18.331 3.04611 17.8722C4.3454 13.4368 7.09999 9.44169 10.8021 6.62296C14.6274 3.71058 19.1906 2.17139 23.9988 2.17139C28.807 2.17139 33.3702 3.71058 37.1954 6.62296C40.8975 9.44169 43.6521 13.4368 44.9514 17.8722C45.0856 18.331 45.5133 18.6517 45.9916 18.6517C46.3364 18.6517 46.653 18.4931 46.8598 18.2171C47.0674 17.9397 47.1305 17.5897 47.0328 17.2572C45.6034 12.382 42.575 7.99102 38.5058 4.89314C34.301 1.69185 29.2845 0 23.999 0C18.7136 0 13.697 1.69185 9.49178 4.89314C5.4225 7.99076 2.39415 12.3818 0.964773 17.257C0.867274 17.5897 0.930392 17.9394 1.13796 18.2165C1.34476 18.4929 1.66137 18.6512 2.00621 18.6512V18.6514Z" fill="#FF3E3E"/>
        <path d="M22.5896 30.2358L18.8823 19.618L18.9226 21.6529V30.0947C18.9226 30.7797 18.4792 31.2228 17.7944 31.2228C17.1096 31.2228 16.666 30.7795 16.666 30.0947V18.6507C16.666 17.5022 17.4114 16.7569 18.5398 16.7569C19.386 16.7569 20.091 17.2606 20.3733 18.0464L24.02 28.362L27.6264 18.0464C27.9083 17.2606 28.6137 16.7569 29.4599 16.7569C30.5883 16.7569 31.3336 17.5022 31.3336 18.6507V30.0947C31.3336 30.7797 30.8903 31.2228 30.2052 31.2228C29.5202 31.2228 29.077 30.7795 29.077 30.0947V21.6529L29.1173 19.618L25.4304 30.2358C25.2087 30.8806 24.705 31.2431 24.02 31.2431C23.3349 31.2431 22.8312 30.8806 22.5896 30.2358Z" fill="#1A1110"/>
    </g>
    <defs>
        <clipPath id="clip0_778_5628">
            <rect width="46.1581" height="48" fill="white" transform="translate(0.920898)"/>
        </clipPath>
    </defs>
</svg>
